# xmcd
#
# Track frame offsets: 
#        183
#        21193
#        40168
#
# Disc length: 865 seconds
#
# Revision: 0
# Processed by: cddbd v1.5.2PL0 Copyright (c) Steve Scherf et al.
# Submitted via: ExactAudioCopy v0.95a5
#
DISCID=1b035f03
DTITLE=Dionne Warwick - Friends Can Be Lovers (Single)
DYEAR=1992
DGENRE=Soul
TTITLE0=Friends Can Be Lovers
TTITLE1=Fragile
TTITLE2=Will You Still Love Me Tomorrow
EXTD=
EXTT0=
EXTT1=
EXTT2=
PLAYORDER=
